<mxfile host="app.diagrams.net" agent="Mozilla/5.0 (Windows NT 10.0; Win64; x64) AppleWebKit/537.36 (KHTML, like Gecko) Chrome/128.0.0.0 Safari/537.36 Edg/128.0.0.0" version="24.7.7">
  <diagram name="페이지-1" id="2KR9_V_Ib_mn6aHb6Ial">
    <mxGraphModel grid="1" page="1" gridSize="10" guides="1" tooltips="1" connect="1" arrows="1" fold="1" pageScale="1" pageWidth="827" pageHeight="1169" math="0" shadow="0">
      <root>
        <mxCell id="0" />
        <mxCell id="1" parent="0" />
        <mxCell id="ZcnOkjis89grHfUKvJkv-2" style="edgeStyle=orthogonalEdgeStyle;rounded=0;orthogonalLoop=1;jettySize=auto;html=1;" edge="1" parent="1" source="ZcnOkjis89grHfUKvJkv-1" target="ZcnOkjis89grHfUKvJkv-3">
          <mxGeometry relative="1" as="geometry">
            <mxPoint x="390" y="430" as="targetPoint" />
          </mxGeometry>
        </mxCell>
        <mxCell id="ZcnOkjis89grHfUKvJkv-1" value="시작" style="rounded=0;whiteSpace=wrap;html=1;" vertex="1" parent="1">
          <mxGeometry x="330" y="230" width="120" height="60" as="geometry" />
        </mxCell>
        <mxCell id="ZcnOkjis89grHfUKvJkv-4" style="edgeStyle=orthogonalEdgeStyle;rounded=0;orthogonalLoop=1;jettySize=auto;html=1;exitX=0.5;exitY=1;exitDx=0;exitDy=0;" edge="1" parent="1" source="ZcnOkjis89grHfUKvJkv-3" target="ZcnOkjis89grHfUKvJkv-5">
          <mxGeometry relative="1" as="geometry">
            <mxPoint x="390.2857142857142" y="530" as="targetPoint" />
          </mxGeometry>
        </mxCell>
        <mxCell id="ZcnOkjis89grHfUKvJkv-3" value="메뉴" style="rounded=0;whiteSpace=wrap;html=1;" vertex="1" parent="1">
          <mxGeometry x="330" y="340" width="120" height="60" as="geometry" />
        </mxCell>
        <mxCell id="ZcnOkjis89grHfUKvJkv-6" style="edgeStyle=orthogonalEdgeStyle;rounded=0;orthogonalLoop=1;jettySize=auto;html=1;exitX=1;exitY=0.5;exitDx=0;exitDy=0;" edge="1" parent="1" source="ZcnOkjis89grHfUKvJkv-5" target="ZcnOkjis89grHfUKvJkv-13">
          <mxGeometry relative="1" as="geometry">
            <mxPoint x="630.0000000000002" y="690" as="targetPoint" />
          </mxGeometry>
        </mxCell>
        <mxCell id="ZcnOkjis89grHfUKvJkv-7" style="edgeStyle=orthogonalEdgeStyle;rounded=0;orthogonalLoop=1;jettySize=auto;html=1;exitX=0.5;exitY=1;exitDx=0;exitDy=0;" edge="1" parent="1" source="ZcnOkjis89grHfUKvJkv-5" target="ZcnOkjis89grHfUKvJkv-9">
          <mxGeometry relative="1" as="geometry">
            <mxPoint x="390.3333333333335" y="690" as="targetPoint" />
          </mxGeometry>
        </mxCell>
        <mxCell id="ZcnOkjis89grHfUKvJkv-5" value="&lt;span style=&quot;background-color: initial;&quot;&gt;마우스를&lt;/span&gt;&lt;div&gt;올린다&lt;/div&gt;" style="rhombus;whiteSpace=wrap;html=1;" vertex="1" parent="1">
          <mxGeometry x="330" y="450" width="120" height="120" as="geometry" />
        </mxCell>
        <mxCell id="ZcnOkjis89grHfUKvJkv-10" style="edgeStyle=orthogonalEdgeStyle;rounded=0;orthogonalLoop=1;jettySize=auto;html=1;exitX=0.5;exitY=1;exitDx=0;exitDy=0;" edge="1" parent="1" source="ZcnOkjis89grHfUKvJkv-9" target="ZcnOkjis89grHfUKvJkv-11">
          <mxGeometry relative="1" as="geometry">
            <mxPoint x="390" y="850" as="targetPoint" />
          </mxGeometry>
        </mxCell>
        <mxCell id="ZcnOkjis89grHfUKvJkv-9" value="슬라이드 다운&lt;div&gt;애니메이션&lt;/div&gt;" style="rounded=0;whiteSpace=wrap;html=1;" vertex="1" parent="1">
          <mxGeometry x="330.0033333333337" y="640" width="120" height="60" as="geometry" />
        </mxCell>
        <mxCell id="ZcnOkjis89grHfUKvJkv-16" style="edgeStyle=orthogonalEdgeStyle;rounded=0;orthogonalLoop=1;jettySize=auto;html=1;exitX=0.5;exitY=1;exitDx=0;exitDy=0;" edge="1" parent="1" target="ZcnOkjis89grHfUKvJkv-17">
          <mxGeometry relative="1" as="geometry">
            <mxPoint x="390.2857142857142" y="970" as="targetPoint" />
            <mxPoint x="390.0000000000002" y="820" as="sourcePoint" />
          </mxGeometry>
        </mxCell>
        <mxCell id="ZcnOkjis89grHfUKvJkv-11" value="드롭다운 메뉴&lt;div&gt;680px&lt;/div&gt;" style="rounded=0;whiteSpace=wrap;html=1;" vertex="1" parent="1">
          <mxGeometry x="330.0000000000002" y="770" width="120" height="60" as="geometry" />
        </mxCell>
        <mxCell id="ZcnOkjis89grHfUKvJkv-13" value="아무련 변화 X" style="rounded=0;whiteSpace=wrap;html=1;" vertex="1" parent="1">
          <mxGeometry x="570" y="640" width="120" height="60" as="geometry" />
        </mxCell>
        <mxCell id="ZcnOkjis89grHfUKvJkv-14" value="NO" style="text;html=1;align=center;verticalAlign=middle;whiteSpace=wrap;rounded=0;" vertex="1" parent="1">
          <mxGeometry x="404" y="450" width="90" height="50" as="geometry" />
        </mxCell>
        <mxCell id="ZcnOkjis89grHfUKvJkv-15" value="&lt;font style=&quot;font-size: 17px;&quot;&gt;yes&lt;/font&gt;" style="text;html=1;align=center;verticalAlign=middle;whiteSpace=wrap;rounded=0;" vertex="1" parent="1">
          <mxGeometry x="320" y="570" width="70" height="40" as="geometry" />
        </mxCell>
        <mxCell id="ZcnOkjis89grHfUKvJkv-22" style="edgeStyle=orthogonalEdgeStyle;rounded=0;orthogonalLoop=1;jettySize=auto;html=1;exitX=0;exitY=0.5;exitDx=0;exitDy=0;entryX=0;entryY=0.5;entryDx=0;entryDy=0;" edge="1" parent="1" source="ZcnOkjis89grHfUKvJkv-17" target="ZcnOkjis89grHfUKvJkv-1">
          <mxGeometry relative="1" as="geometry">
            <Array as="points">
              <mxPoint x="220" y="930" />
              <mxPoint x="220" y="260" />
            </Array>
          </mxGeometry>
        </mxCell>
        <mxCell id="ZcnOkjis89grHfUKvJkv-17" value="종료" style="rounded=0;whiteSpace=wrap;html=1;" vertex="1" parent="1">
          <mxGeometry x="330.2857142857142" y="900" width="120" height="60" as="geometry" />
        </mxCell>
      </root>
    </mxGraphModel>
  </diagram>
</mxfile>
